<svg xmlns="http://www.w3.org/2000/svg" xmlns:xlink="http://www.w3.org/1999/xlink" width="48" zoomAndPan="magnify" viewBox="0 0 36 36.000001" height="48" preserveAspectRatio="xMidYMid meet" version="1.0"><defs><g/><clipPath id="2682e815e2"><path d="M 12.246094 9 L 23.921875 9 L 23.921875 22 L 12.246094 22 Z M 12.246094 9 " clip-rule="nonzero"/></clipPath><clipPath id="73de92291d"><path d="M 23.058594 16.71875 C 23.289062 16.851562 23.488281 17.054688 23.617188 17.3125 C 23.921875 17.929688 23.734375 18.691406 23.171875 19.085938 C 22.480469 19.578125 21.53125 19.34375 21.132812 18.609375 C 20.777344 17.949219 21.003906 17.113281 21.648438 16.730469 C 21.65625 16.722656 21.667969 16.71875 21.679688 16.710938 C 21.945312 16.5625 22.109375 16.277344 22.109375 15.972656 L 22.109375 14.945312 C 22.109375 14.636719 21.9375 14.351562 21.667969 14.199219 C 21.660156 14.195312 21.65625 14.191406 21.652344 14.191406 C 21.386719 14.035156 21.058594 14.03125 20.792969 14.183594 L 19.910156 14.695312 C 19.644531 14.851562 19.484375 15.136719 19.484375 15.441406 C 19.492188 15.933594 19.238281 16.414062 18.785156 16.675781 C 18.332031 16.941406 17.792969 16.917969 17.371094 16.667969 C 17.109375 16.511719 16.78125 16.511719 16.519531 16.664062 L 15.632812 17.175781 C 15.367188 17.332031 15.207031 17.617188 15.210938 17.925781 C 15.210938 17.933594 15.210938 17.9375 15.210938 17.945312 C 15.207031 18.253906 15.363281 18.546875 15.632812 18.699219 L 16.519531 19.214844 C 16.785156 19.367188 17.113281 19.363281 17.378906 19.207031 C 17.378906 19.203125 17.382812 19.203125 17.386719 19.203125 C 18.054688 18.8125 18.914062 19.042969 19.300781 19.714844 C 19.6875 20.390625 19.457031 21.25 18.785156 21.636719 C 18.117188 22.027344 17.261719 21.796875 16.875 21.121094 C 16.742188 20.894531 16.683594 20.644531 16.6875 20.402344 C 16.691406 20.09375 16.527344 19.8125 16.261719 19.65625 L 15.378906 19.144531 C 15.113281 18.988281 14.785156 18.996094 14.519531 19.152344 C 14.515625 19.152344 14.511719 19.15625 14.511719 19.15625 C 13.8125 19.5625 12.910156 19.292969 12.550781 18.554688 C 12.25 17.933594 12.449219 17.171875 13.015625 16.78125 C 13.050781 16.753906 13.089844 16.730469 13.128906 16.710938 C 13.394531 16.5625 13.554688 16.277344 13.554688 15.972656 L 13.554688 14.945312 C 13.554688 14.636719 13.382812 14.351562 13.113281 14.199219 C 12.882812 14.066406 12.683594 13.863281 12.554688 13.605469 C 12.25 12.988281 12.4375 12.226562 13 11.832031 C 13.691406 11.339844 14.644531 11.570312 15.039062 12.308594 C 15.398438 12.96875 15.167969 13.804688 14.527344 14.1875 C 14.515625 14.195312 14.503906 14.199219 14.492188 14.207031 C 14.226562 14.355469 14.066406 14.640625 14.066406 14.945312 L 14.066406 15.972656 C 14.066406 16.28125 14.238281 16.5625 14.507812 16.71875 C 14.511719 16.722656 14.515625 16.726562 14.519531 16.726562 C 14.785156 16.882812 15.113281 16.886719 15.378906 16.734375 L 16.261719 16.21875 C 16.527344 16.066406 16.691406 15.78125 16.6875 15.476562 C 16.679688 14.984375 16.933594 14.503906 17.386719 14.242188 C 17.839844 13.976562 18.378906 14 18.800781 14.25 C 19.0625 14.40625 19.390625 14.40625 19.65625 14.253906 L 20.539062 13.742188 C 20.804688 13.585938 20.964844 13.300781 20.960938 12.992188 C 20.960938 12.984375 20.960938 12.980469 20.960938 12.972656 C 20.964844 12.664062 20.808594 12.371094 20.539062 12.21875 L 19.65625 11.703125 C 19.386719 11.550781 19.058594 11.554688 18.792969 11.710938 C 18.792969 11.714844 18.789062 11.714844 18.785156 11.714844 C 18.117188 12.105469 17.261719 11.875 16.875 11.203125 C 16.488281 10.527344 16.714844 9.667969 17.386719 9.28125 C 18.054688 8.890625 18.914062 9.121094 19.300781 9.796875 C 19.429688 10.023438 19.488281 10.273438 19.488281 10.515625 C 19.480469 10.824219 19.644531 11.105469 19.910156 11.261719 L 20.792969 11.773438 C 21.0625 11.925781 21.390625 11.921875 21.65625 11.765625 C 21.65625 11.761719 21.660156 11.761719 21.664062 11.761719 C 22.363281 11.355469 23.261719 11.625 23.621094 12.363281 C 23.925781 12.984375 23.722656 13.746094 23.15625 14.136719 C 23.121094 14.164062 23.082031 14.1875 23.046875 14.207031 C 22.78125 14.355469 22.617188 14.640625 22.617188 14.945312 L 22.617188 15.972656 C 22.617188 16.28125 22.789062 16.5625 23.058594 16.71875 Z M 23.058594 16.71875 " clip-rule="nonzero"/></clipPath><linearGradient x1="-20.171976" gradientTransform="matrix(0.0253543, 0, 0, 0.0254693, 12.409925, 9.091523)" y1="494.053988" x2="467.896882" gradientUnits="userSpaceOnUse" y2="5.985106" id="9cdc3b2d60"><stop stop-opacity="1" stop-color="rgb(45.098877%, 24.699402%, 97.599792%)" offset="0"/><stop stop-opacity="1" stop-color="rgb(45.098877%, 24.699402%, 97.599792%)" offset="0.125"/><stop stop-opacity="1" stop-color="rgb(45.098877%, 24.699402%, 97.599792%)" offset="0.140625"/><stop stop-opacity="1" stop-color="rgb(45.137024%, 24.713135%, 97.566223%)" offset="0.148438"/><stop stop-opacity="1" stop-color="rgb(45.477295%, 24.842834%, 97.277832%)" offset="0.152344"/><stop stop-opacity="1" stop-color="rgb(45.779419%, 24.958801%, 97.02301%)" offset="0.15625"/><stop stop-opacity="1" stop-color="rgb(46.081543%, 25.073242%, 96.766663%)" offset="0.160156"/><stop stop-opacity="1" stop-color="rgb(46.383667%, 25.189209%, 96.510315%)" offset="0.164062"/><stop stop-opacity="1" stop-color="rgb(46.684265%, 25.30365%, 96.253967%)" offset="0.167969"/><stop stop-opacity="1" stop-color="rgb(46.986389%, 25.419617%, 95.999146%)" offset="0.171875"/><stop stop-opacity="1" stop-color="rgb(47.288513%, 25.534058%, 95.742798%)" offset="0.175781"/><stop stop-opacity="1" stop-color="rgb(47.590637%, 25.650024%, 95.487976%)" offset="0.179688"/><stop stop-opacity="1" stop-color="rgb(47.892761%, 25.764465%, 95.231628%)" offset="0.183594"/><stop stop-opacity="1" stop-color="rgb(48.194885%, 25.880432%, 94.975281%)" offset="0.1875"/><stop stop-opacity="1" stop-color="rgb(48.495483%, 25.994873%, 94.718933%)" offset="0.191406"/><stop stop-opacity="1" stop-color="rgb(48.797607%, 26.11084%, 94.464111%)" offset="0.195312"/><stop stop-opacity="1" stop-color="rgb(49.099731%, 26.225281%, 94.207764%)" offset="0.199219"/><stop stop-opacity="1" stop-color="rgb(49.401855%, 26.341248%, 93.951416%)" offset="0.203125"/><stop stop-opacity="1" stop-color="rgb(49.703979%, 26.455688%, 93.695068%)" offset="0.207031"/><stop stop-opacity="1" stop-color="rgb(50.006104%, 26.571655%, 93.440247%)" offset="0.210938"/><stop stop-opacity="1" stop-color="rgb(50.306702%, 26.686096%, 93.183899%)" offset="0.214844"/><stop stop-opacity="1" stop-color="rgb(50.608826%, 26.802063%, 92.927551%)" offset="0.21875"/><stop stop-opacity="1" stop-color="rgb(50.91095%, 26.916504%, 92.671204%)" offset="0.222656"/><stop stop-opacity="1" stop-color="rgb(51.213074%, 27.032471%, 92.416382%)" offset="0.226562"/><stop stop-opacity="1" stop-color="rgb(51.515198%, 27.146912%, 92.160034%)" offset="0.230469"/><stop stop-opacity="1" stop-color="rgb(51.817322%, 27.262878%, 91.905212%)" offset="0.234375"/><stop stop-opacity="1" stop-color="rgb(52.119446%, 27.377319%, 91.648865%)" offset="0.238281"/><stop stop-opacity="1" stop-color="rgb(52.42157%, 27.493286%, 91.392517%)" offset="0.242187"/><stop stop-opacity="1" stop-color="rgb(52.722168%, 27.607727%, 91.136169%)" offset="0.246094"/><stop stop-opacity="1" stop-color="rgb(53.024292%, 27.723694%, 90.881348%)" offset="0.25"/><stop stop-opacity="1" stop-color="rgb(53.326416%, 27.838135%, 90.625%)" offset="0.253906"/><stop stop-opacity="1" stop-color="rgb(53.62854%, 27.954102%, 90.368652%)" offset="0.257812"/><stop stop-opacity="1" stop-color="rgb(53.930664%, 28.068542%, 90.112305%)" offset="0.261719"/><stop stop-opacity="1" stop-color="rgb(54.232788%, 28.184509%, 89.857483%)" offset="0.265625"/><stop stop-opacity="1" stop-color="rgb(54.533386%, 28.29895%, 89.601135%)" offset="0.269531"/><stop stop-opacity="1" stop-color="rgb(54.83551%, 28.414917%, 89.344788%)" offset="0.273438"/><stop stop-opacity="1" stop-color="rgb(55.137634%, 28.529358%, 89.08844%)" offset="0.277344"/><stop stop-opacity="1" stop-color="rgb(55.439758%, 28.645325%, 88.833618%)" offset="0.28125"/><stop stop-opacity="1" stop-color="rgb(55.741882%, 28.759766%, 88.577271%)" offset="0.285156"/><stop stop-opacity="1" stop-color="rgb(56.044006%, 28.875732%, 88.320923%)" offset="0.289062"/><stop stop-opacity="1" stop-color="rgb(56.344604%, 28.990173%, 88.064575%)" offset="0.292969"/><stop stop-opacity="1" stop-color="rgb(56.646729%, 29.10614%, 87.809753%)" offset="0.296875"/><stop stop-opacity="1" stop-color="rgb(56.948853%, 29.220581%, 87.553406%)" offset="0.300781"/><stop stop-opacity="1" stop-color="rgb(57.250977%, 29.336548%, 87.298584%)" offset="0.304687"/><stop stop-opacity="1" stop-color="rgb(57.553101%, 29.450989%, 87.042236%)" offset="0.308594"/><stop stop-opacity="1" stop-color="rgb(57.855225%, 29.566956%, 86.785889%)" offset="0.3125"/><stop stop-opacity="1" stop-color="rgb(58.157349%, 29.681396%, 86.529541%)" offset="0.316406"/><stop stop-opacity="1" stop-color="rgb(58.459473%, 29.797363%, 86.274719%)" offset="0.320312"/><stop stop-opacity="1" stop-color="rgb(58.760071%, 29.911804%, 86.018372%)" offset="0.324219"/><stop stop-opacity="1" stop-color="rgb(59.062195%, 30.027771%, 85.762024%)" offset="0.328125"/><stop stop-opacity="1" stop-color="rgb(59.364319%, 30.142212%, 85.505676%)" offset="0.332031"/><stop stop-opacity="1" stop-color="rgb(59.666443%, 30.258179%, 85.250854%)" offset="0.335938"/><stop stop-opacity="1" stop-color="rgb(59.968567%, 30.37262%, 84.994507%)" offset="0.339844"/><stop stop-opacity="1" stop-color="rgb(60.270691%, 30.488586%, 84.738159%)" offset="0.34375"/><stop stop-opacity="1" stop-color="rgb(60.571289%, 30.603027%, 84.481812%)" offset="0.347656"/><stop stop-opacity="1" stop-color="rgb(60.873413%, 30.718994%, 84.22699%)" offset="0.351562"/><stop stop-opacity="1" stop-color="rgb(61.175537%, 30.833435%, 83.970642%)" offset="0.355469"/><stop stop-opacity="1" stop-color="rgb(61.477661%, 30.949402%, 83.714294%)" offset="0.359375"/><stop stop-opacity="1" stop-color="rgb(61.779785%, 31.065369%, 83.457947%)" offset="0.363281"/><stop stop-opacity="1" stop-color="rgb(62.081909%, 31.181335%, 83.203125%)" offset="0.367187"/><stop stop-opacity="1" stop-color="rgb(62.384033%, 31.295776%, 82.946777%)" offset="0.371094"/><stop stop-opacity="1" stop-color="rgb(62.686157%, 31.411743%, 82.691956%)" offset="0.375"/><stop stop-opacity="1" stop-color="rgb(62.986755%, 31.526184%, 82.435608%)" offset="0.378906"/><stop stop-opacity="1" stop-color="rgb(63.288879%, 31.642151%, 82.17926%)" offset="0.382812"/><stop stop-opacity="1" stop-color="rgb(63.591003%, 31.756592%, 81.922913%)" offset="0.386719"/><stop stop-opacity="1" stop-color="rgb(63.893127%, 31.872559%, 81.668091%)" offset="0.390625"/><stop stop-opacity="1" stop-color="rgb(64.195251%, 31.987%, 81.411743%)" offset="0.394531"/><stop stop-opacity="1" stop-color="rgb(64.497375%, 32.102966%, 81.155396%)" offset="0.398438"/><stop stop-opacity="1" stop-color="rgb(64.797974%, 32.217407%, 80.899048%)" offset="0.402344"/><stop stop-opacity="1" stop-color="rgb(65.100098%, 32.333374%, 80.644226%)" offset="0.40625"/><stop stop-opacity="1" stop-color="rgb(65.402222%, 32.447815%, 80.387878%)" offset="0.410156"/><stop stop-opacity="1" stop-color="rgb(65.704346%, 32.563782%, 80.131531%)" offset="0.414062"/><stop stop-opacity="1" stop-color="rgb(66.00647%, 32.678223%, 79.875183%)" offset="0.417969"/><stop stop-opacity="1" stop-color="rgb(66.308594%, 32.794189%, 79.620361%)" offset="0.421875"/><stop stop-opacity="1" stop-color="rgb(66.609192%, 32.90863%, 79.364014%)" offset="0.425781"/><stop stop-opacity="1" stop-color="rgb(66.911316%, 33.024597%, 79.107666%)" offset="0.429687"/><stop stop-opacity="1" stop-color="rgb(67.21344%, 33.139038%, 78.851318%)" offset="0.433594"/><stop stop-opacity="1" stop-color="rgb(67.515564%, 33.255005%, 78.596497%)" offset="0.4375"/><stop stop-opacity="1" stop-color="rgb(67.817688%, 33.369446%, 78.340149%)" offset="0.441406"/><stop stop-opacity="1" stop-color="rgb(68.119812%, 33.485413%, 78.085327%)" offset="0.445312"/><stop stop-opacity="1" stop-color="rgb(68.421936%, 33.599854%, 77.828979%)" offset="0.449219"/><stop stop-opacity="1" stop-color="rgb(68.72406%, 33.71582%, 77.572632%)" offset="0.453125"/><stop stop-opacity="1" stop-color="rgb(69.024658%, 33.830261%, 77.316284%)" offset="0.457031"/><stop stop-opacity="1" stop-color="rgb(69.326782%, 33.946228%, 77.061462%)" offset="0.460938"/><stop stop-opacity="1" stop-color="rgb(69.628906%, 34.060669%, 76.805115%)" offset="0.464844"/><stop stop-opacity="1" stop-color="rgb(69.93103%, 34.176636%, 76.548767%)" offset="0.46875"/><stop stop-opacity="1" stop-color="rgb(70.233154%, 34.291077%, 76.292419%)" offset="0.472656"/><stop stop-opacity="1" stop-color="rgb(70.535278%, 34.407043%, 76.037598%)" offset="0.476562"/><stop stop-opacity="1" stop-color="rgb(70.835876%, 34.521484%, 75.78125%)" offset="0.480469"/><stop stop-opacity="1" stop-color="rgb(71.138%, 34.637451%, 75.524902%)" offset="0.484375"/><stop stop-opacity="1" stop-color="rgb(71.440125%, 34.751892%, 75.268555%)" offset="0.488281"/><stop stop-opacity="1" stop-color="rgb(71.742249%, 34.867859%, 75.013733%)" offset="0.492187"/><stop stop-opacity="1" stop-color="rgb(72.044373%, 34.9823%, 74.757385%)" offset="0.496094"/><stop stop-opacity="1" stop-color="rgb(72.346497%, 35.098267%, 74.502563%)" offset="0.5"/><stop stop-opacity="1" stop-color="rgb(72.647095%, 35.212708%, 74.246216%)" offset="0.503906"/><stop stop-opacity="1" stop-color="rgb(72.949219%, 35.328674%, 73.989868%)" offset="0.507812"/><stop stop-opacity="1" stop-color="rgb(73.251343%, 35.443115%, 73.733521%)" offset="0.511719"/><stop stop-opacity="1" stop-color="rgb(73.553467%, 35.559082%, 73.478699%)" offset="0.515625"/><stop stop-opacity="1" stop-color="rgb(73.855591%, 35.673523%, 73.222351%)" offset="0.519531"/><stop stop-opacity="1" stop-color="rgb(74.157715%, 35.78949%, 72.966003%)" offset="0.523438"/><stop stop-opacity="1" stop-color="rgb(74.459839%, 35.903931%, 72.709656%)" offset="0.527344"/><stop stop-opacity="1" stop-color="rgb(74.761963%, 36.019897%, 72.454834%)" offset="0.53125"/><stop stop-opacity="1" stop-color="rgb(75.062561%, 36.134338%, 72.198486%)" offset="0.535156"/><stop stop-opacity="1" stop-color="rgb(75.364685%, 36.250305%, 71.942139%)" offset="0.539062"/><stop stop-opacity="1" stop-color="rgb(75.666809%, 36.364746%, 71.685791%)" offset="0.542969"/><stop stop-opacity="1" stop-color="rgb(75.968933%, 36.480713%, 71.430969%)" offset="0.546875"/><stop stop-opacity="1" stop-color="rgb(76.271057%, 36.595154%, 71.174622%)" offset="0.550781"/><stop stop-opacity="1" stop-color="rgb(76.573181%, 36.711121%, 70.918274%)" offset="0.554687"/><stop stop-opacity="1" stop-color="rgb(76.873779%, 36.825562%, 70.661926%)" offset="0.558594"/><stop stop-opacity="1" stop-color="rgb(77.175903%, 36.941528%, 70.407104%)" offset="0.5625"/><stop stop-opacity="1" stop-color="rgb(77.478027%, 37.055969%, 70.150757%)" offset="0.566406"/><stop stop-opacity="1" stop-color="rgb(77.780151%, 37.171936%, 69.895935%)" offset="0.570312"/><stop stop-opacity="1" stop-color="rgb(78.082275%, 37.286377%, 69.639587%)" offset="0.574219"/><stop stop-opacity="1" stop-color="rgb(78.384399%, 37.402344%, 69.38324%)" offset="0.578125"/><stop stop-opacity="1" stop-color="rgb(78.686523%, 37.516785%, 69.126892%)" offset="0.582031"/><stop stop-opacity="1" stop-color="rgb(78.988647%, 37.632751%, 68.87207%)" offset="0.585937"/><stop stop-opacity="1" stop-color="rgb(79.289246%, 37.747192%, 68.615723%)" offset="0.589844"/><stop stop-opacity="1" stop-color="rgb(79.59137%, 37.863159%, 68.359375%)" offset="0.59375"/><stop stop-opacity="1" stop-color="rgb(79.893494%, 37.9776%, 68.103027%)" offset="0.597656"/><stop stop-opacity="1" stop-color="rgb(80.195618%, 38.093567%, 67.848206%)" offset="0.601562"/><stop stop-opacity="1" stop-color="rgb(80.497742%, 38.208008%, 67.591858%)" offset="0.605469"/><stop stop-opacity="1" stop-color="rgb(80.799866%, 38.323975%, 67.33551%)" offset="0.609375"/><stop stop-opacity="1" stop-color="rgb(81.100464%, 38.438416%, 67.079163%)" offset="0.613281"/><stop stop-opacity="1" stop-color="rgb(81.402588%, 38.554382%, 66.824341%)" offset="0.617188"/><stop stop-opacity="1" stop-color="rgb(81.704712%, 38.668823%, 66.567993%)" offset="0.621094"/><stop stop-opacity="1" stop-color="rgb(82.006836%, 38.78479%, 66.311646%)" offset="0.625"/><stop stop-opacity="1" stop-color="rgb(82.30896%, 38.899231%, 66.055298%)" offset="0.628906"/><stop stop-opacity="1" stop-color="rgb(82.611084%, 39.015198%, 65.800476%)" offset="0.632812"/><stop stop-opacity="1" stop-color="rgb(82.911682%, 39.129639%, 65.544128%)" offset="0.636719"/><stop stop-opacity="1" stop-color="rgb(83.213806%, 39.245605%, 65.289307%)" offset="0.640625"/><stop stop-opacity="1" stop-color="rgb(83.51593%, 39.360046%, 65.032959%)" offset="0.644531"/><stop stop-opacity="1" stop-color="rgb(83.818054%, 39.476013%, 64.776611%)" offset="0.648438"/><stop stop-opacity="1" stop-color="rgb(84.120178%, 39.590454%, 64.520264%)" offset="0.652344"/><stop stop-opacity="1" stop-color="rgb(84.422302%, 39.706421%, 64.265442%)" offset="0.65625"/><stop stop-opacity="1" stop-color="rgb(84.724426%, 39.820862%, 64.009094%)" offset="0.660156"/><stop stop-opacity="1" stop-color="rgb(85.02655%, 39.936829%, 63.752747%)" offset="0.664062"/><stop stop-opacity="1" stop-color="rgb(85.327148%, 40.05127%, 63.496399%)" offset="0.667969"/><stop stop-opacity="1" stop-color="rgb(85.629272%, 40.167236%, 63.241577%)" offset="0.671875"/><stop stop-opacity="1" stop-color="rgb(85.931396%, 40.281677%, 62.985229%)" offset="0.675781"/><stop stop-opacity="1" stop-color="rgb(86.233521%, 40.397644%, 62.728882%)" offset="0.679687"/><stop stop-opacity="1" stop-color="rgb(86.535645%, 40.512085%, 62.472534%)" offset="0.683594"/><stop stop-opacity="1" stop-color="rgb(86.837769%, 40.628052%, 62.217712%)" offset="0.6875"/><stop stop-opacity="1" stop-color="rgb(87.138367%, 40.742493%, 61.961365%)" offset="0.691406"/><stop stop-opacity="1" stop-color="rgb(87.440491%, 40.858459%, 61.706543%)" offset="0.695312"/><stop stop-opacity="1" stop-color="rgb(87.742615%, 40.9729%, 61.450195%)" offset="0.699219"/><stop stop-opacity="1" stop-color="rgb(88.044739%, 41.088867%, 61.193848%)" offset="0.703125"/><stop stop-opacity="1" stop-color="rgb(88.346863%, 41.203308%, 60.9375%)" offset="0.707031"/><stop stop-opacity="1" stop-color="rgb(88.648987%, 41.319275%, 60.682678%)" offset="0.710938"/><stop stop-opacity="1" stop-color="rgb(88.949585%, 41.433716%, 60.426331%)" offset="0.714844"/><stop stop-opacity="1" stop-color="rgb(89.251709%, 41.549683%, 60.169983%)" offset="0.71875"/><stop stop-opacity="1" stop-color="rgb(89.553833%, 41.664124%, 59.913635%)" offset="0.722656"/><stop stop-opacity="1" stop-color="rgb(89.855957%, 41.78009%, 59.658813%)" offset="0.726562"/><stop stop-opacity="1" stop-color="rgb(90.158081%, 41.894531%, 59.402466%)" offset="0.730469"/><stop stop-opacity="1" stop-color="rgb(90.460205%, 42.010498%, 59.146118%)" offset="0.734375"/><stop stop-opacity="1" stop-color="rgb(90.762329%, 42.126465%, 58.889771%)" offset="0.738281"/><stop stop-opacity="1" stop-color="rgb(91.064453%, 42.242432%, 58.634949%)" offset="0.742188"/><stop stop-opacity="1" stop-color="rgb(91.365051%, 42.356873%, 58.378601%)" offset="0.746094"/><stop stop-opacity="1" stop-color="rgb(91.667175%, 42.472839%, 58.122253%)" offset="0.75"/><stop stop-opacity="1" stop-color="rgb(91.969299%, 42.58728%, 57.865906%)" offset="0.753906"/><stop stop-opacity="1" stop-color="rgb(92.271423%, 42.703247%, 57.611084%)" offset="0.757812"/><stop stop-opacity="1" stop-color="rgb(92.573547%, 42.817688%, 57.354736%)" offset="0.761719"/><stop stop-opacity="1" stop-color="rgb(92.875671%, 42.933655%, 57.099915%)" offset="0.765625"/><stop stop-opacity="1" stop-color="rgb(93.17627%, 43.048096%, 56.843567%)" offset="0.769531"/><stop stop-opacity="1" stop-color="rgb(93.478394%, 43.164062%, 56.587219%)" offset="0.773438"/><stop stop-opacity="1" stop-color="rgb(93.780518%, 43.278503%, 56.330872%)" offset="0.777344"/><stop stop-opacity="1" stop-color="rgb(94.082642%, 43.39447%, 56.07605%)" offset="0.78125"/><stop stop-opacity="1" stop-color="rgb(94.384766%, 43.508911%, 55.819702%)" offset="0.785156"/><stop stop-opacity="1" stop-color="rgb(94.68689%, 43.624878%, 55.563354%)" offset="0.789062"/><stop stop-opacity="1" stop-color="rgb(94.987488%, 43.739319%, 55.307007%)" offset="0.792969"/><stop stop-opacity="1" stop-color="rgb(95.289612%, 43.855286%, 55.052185%)" offset="0.796875"/><stop stop-opacity="1" stop-color="rgb(95.591736%, 43.969727%, 54.795837%)" offset="0.800781"/><stop stop-opacity="1" stop-color="rgb(95.89386%, 44.085693%, 54.53949%)" offset="0.804688"/><stop stop-opacity="1" stop-color="rgb(96.195984%, 44.200134%, 54.283142%)" offset="0.808594"/><stop stop-opacity="1" stop-color="rgb(96.498108%, 44.316101%, 54.02832%)" offset="0.8125"/><stop stop-opacity="1" stop-color="rgb(96.800232%, 44.430542%, 53.771973%)" offset="0.816406"/><stop stop-opacity="1" stop-color="rgb(97.102356%, 44.546509%, 53.515625%)" offset="0.820312"/><stop stop-opacity="1" stop-color="rgb(97.402954%, 44.66095%, 53.259277%)" offset="0.824219"/><stop stop-opacity="1" stop-color="rgb(97.705078%, 44.776917%, 53.004456%)" offset="0.828125"/><stop stop-opacity="1" stop-color="rgb(98.007202%, 44.891357%, 52.748108%)" offset="0.832031"/><stop stop-opacity="1" stop-color="rgb(98.309326%, 45.007324%, 52.493286%)" offset="0.835938"/><stop stop-opacity="1" stop-color="rgb(98.61145%, 45.121765%, 52.236938%)" offset="0.839844"/><stop stop-opacity="1" stop-color="rgb(98.913574%, 45.237732%, 51.980591%)" offset="0.84375"/><stop stop-opacity="1" stop-color="rgb(99.214172%, 45.352173%, 51.724243%)" offset="0.847656"/><stop stop-opacity="1" stop-color="rgb(99.516296%, 45.46814%, 51.469421%)" offset="0.851562"/><stop stop-opacity="1" stop-color="rgb(99.557495%, 45.483398%, 51.434326%)" offset="0.859375"/><stop stop-opacity="1" stop-color="rgb(99.598694%, 45.498657%, 51.399231%)" offset="0.875"/><stop stop-opacity="1" stop-color="rgb(99.598694%, 45.498657%, 51.399231%)" offset="1"/></linearGradient></defs><g clip-path="url(#2682e815e2)"><g clip-path="url(#73de92291d)"><path fill="url(#9cdc3b2d60)" d="M 12.25 8.890625 L 12.25 22.027344 L 23.921875 22.027344 L 23.921875 8.890625 Z M 12.25 8.890625 " fill-rule="nonzero"/></g></g><g fill="#9d6cff" fill-opacity="1"><g transform="translate(9.186179, 25.594546)"><g><path d="M 0.6875 0.015625 C 0.519531 0.015625 0.394531 -0.0195312 0.3125 -0.09375 C 0.238281 -0.175781 0.203125 -0.300781 0.203125 -0.46875 L 0.203125 -0.59375 C 0.203125 -0.625 0.222656 -0.640625 0.265625 -0.640625 L 0.59375 -0.640625 C 0.632812 -0.640625 0.65625 -0.625 0.65625 -0.59375 L 0.65625 -0.5 C 0.65625 -0.4375 0.664062 -0.390625 0.6875 -0.359375 C 0.71875 -0.335938 0.765625 -0.328125 0.828125 -0.328125 L 1.34375 -0.328125 C 1.40625 -0.328125 1.445312 -0.335938 1.46875 -0.359375 C 1.5 -0.390625 1.515625 -0.4375 1.515625 -0.5 L 1.515625 -0.671875 C 1.515625 -0.734375 1.5 -0.773438 1.46875 -0.796875 C 1.445312 -0.828125 1.40625 -0.84375 1.34375 -0.84375 L 0.71875 -0.84375 C 0.550781 -0.84375 0.425781 -0.878906 0.34375 -0.953125 C 0.269531 -1.023438 0.234375 -1.148438 0.234375 -1.328125 L 0.234375 -1.5625 C 0.234375 -1.726562 0.269531 -1.847656 0.34375 -1.921875 C 0.425781 -1.992188 0.550781 -2.03125 0.71875 -2.03125 L 1.390625 -2.03125 C 1.566406 -2.03125 1.691406 -1.992188 1.765625 -1.921875 C 1.835938 -1.847656 1.875 -1.726562 1.875 -1.5625 L 1.875 -1.4375 C 1.875 -1.394531 1.859375 -1.375 1.828125 -1.375 L 1.484375 -1.375 C 1.441406 -1.375 1.421875 -1.394531 1.421875 -1.4375 L 1.421875 -1.515625 C 1.421875 -1.578125 1.40625 -1.617188 1.375 -1.640625 C 1.351562 -1.671875 1.3125 -1.6875 1.25 -1.6875 L 0.859375 -1.6875 C 0.796875 -1.6875 0.75 -1.671875 0.71875 -1.640625 C 0.695312 -1.617188 0.6875 -1.578125 0.6875 -1.515625 L 0.6875 -1.359375 C 0.6875 -1.296875 0.695312 -1.25 0.71875 -1.21875 C 0.75 -1.195312 0.796875 -1.1875 0.859375 -1.1875 L 1.46875 -1.1875 C 1.644531 -1.1875 1.769531 -1.144531 1.84375 -1.0625 C 1.914062 -0.988281 1.953125 -0.867188 1.953125 -0.703125 L 1.953125 -0.46875 C 1.953125 -0.300781 1.914062 -0.175781 1.84375 -0.09375 C 1.769531 -0.0195312 1.644531 0.015625 1.46875 0.015625 Z M 0.6875 0.015625 "/></g></g></g><g fill="#9d6cff" fill-opacity="1"><g transform="translate(11.522555, 25.594546)"><g><path d="M 0.75 0.015625 C 0.570312 0.015625 0.441406 -0.0234375 0.359375 -0.109375 C 0.273438 -0.191406 0.234375 -0.320312 0.234375 -0.5 L 0.234375 -1.53125 C 0.234375 -1.695312 0.273438 -1.820312 0.359375 -1.90625 C 0.441406 -1.988281 0.570312 -2.03125 0.75 -2.03125 L 1.59375 -2.03125 C 1.769531 -2.03125 1.898438 -1.988281 1.984375 -1.90625 C 2.066406 -1.820312 2.109375 -1.695312 2.109375 -1.53125 L 2.109375 -0.5 C 2.109375 -0.320312 2.066406 -0.191406 1.984375 -0.109375 C 1.898438 -0.0234375 1.769531 0.015625 1.59375 0.015625 Z M 1.46875 -0.375 C 1.539062 -0.375 1.585938 -0.382812 1.609375 -0.40625 C 1.640625 -0.4375 1.65625 -0.488281 1.65625 -0.5625 L 1.65625 -1.46875 C 1.65625 -1.53125 1.640625 -1.578125 1.609375 -1.609375 C 1.585938 -1.640625 1.539062 -1.65625 1.46875 -1.65625 L 0.859375 -1.65625 C 0.796875 -1.65625 0.75 -1.640625 0.71875 -1.609375 C 0.6875 -1.578125 0.671875 -1.53125 0.671875 -1.46875 L 0.671875 -0.5625 C 0.671875 -0.488281 0.6875 -0.4375 0.71875 -0.40625 C 0.75 -0.382812 0.796875 -0.375 0.859375 -0.375 Z M 1.46875 -0.375 "/></g></g></g><g fill="#9d6cff" fill-opacity="1"><g transform="translate(14.075522, 25.594546)"><g><path d="M 0.296875 0 C 0.265625 0 0.25 -0.0195312 0.25 -0.0625 L 0.25 -1.96875 C 0.25 -2 0.265625 -2.015625 0.296875 -2.015625 L 0.640625 -2.015625 C 0.671875 -2.015625 0.6875 -2 0.6875 -1.96875 L 0.6875 -0.40625 L 1.671875 -0.40625 C 1.710938 -0.40625 1.734375 -0.382812 1.734375 -0.34375 L 1.734375 -0.0625 C 1.734375 -0.0195312 1.710938 0 1.671875 0 Z M 0.296875 0 "/></g></g></g><g fill="#9d6cff" fill-opacity="1"><g transform="translate(16.065351, 25.594546)"><g><path d="M 0.6875 0.015625 C 0.519531 0.015625 0.394531 -0.0195312 0.3125 -0.09375 C 0.238281 -0.175781 0.203125 -0.300781 0.203125 -0.46875 L 0.203125 -0.59375 C 0.203125 -0.625 0.222656 -0.640625 0.265625 -0.640625 L 0.59375 -0.640625 C 0.632812 -0.640625 0.65625 -0.625 0.65625 -0.59375 L 0.65625 -0.5 C 0.65625 -0.4375 0.664062 -0.390625 0.6875 -0.359375 C 0.71875 -0.335938 0.765625 -0.328125 0.828125 -0.328125 L 1.34375 -0.328125 C 1.40625 -0.328125 1.445312 -0.335938 1.46875 -0.359375 C 1.5 -0.390625 1.515625 -0.4375 1.515625 -0.5 L 1.515625 -0.671875 C 1.515625 -0.734375 1.5 -0.773438 1.46875 -0.796875 C 1.445312 -0.828125 1.40625 -0.84375 1.34375 -0.84375 L 0.71875 -0.84375 C 0.550781 -0.84375 0.425781 -0.878906 0.34375 -0.953125 C 0.269531 -1.023438 0.234375 -1.148438 0.234375 -1.328125 L 0.234375 -1.5625 C 0.234375 -1.726562 0.269531 -1.847656 0.34375 -1.921875 C 0.425781 -1.992188 0.550781 -2.03125 0.71875 -2.03125 L 1.390625 -2.03125 C 1.566406 -2.03125 1.691406 -1.992188 1.765625 -1.921875 C 1.835938 -1.847656 1.875 -1.726562 1.875 -1.5625 L 1.875 -1.4375 C 1.875 -1.394531 1.859375 -1.375 1.828125 -1.375 L 1.484375 -1.375 C 1.441406 -1.375 1.421875 -1.394531 1.421875 -1.4375 L 1.421875 -1.515625 C 1.421875 -1.578125 1.40625 -1.617188 1.375 -1.640625 C 1.351562 -1.671875 1.3125 -1.6875 1.25 -1.6875 L 0.859375 -1.6875 C 0.796875 -1.6875 0.75 -1.671875 0.71875 -1.640625 C 0.695312 -1.617188 0.6875 -1.578125 0.6875 -1.515625 L 0.6875 -1.359375 C 0.6875 -1.296875 0.695312 -1.25 0.71875 -1.21875 C 0.75 -1.195312 0.796875 -1.1875 0.859375 -1.1875 L 1.46875 -1.1875 C 1.644531 -1.1875 1.769531 -1.144531 1.84375 -1.0625 C 1.914062 -0.988281 1.953125 -0.867188 1.953125 -0.703125 L 1.953125 -0.46875 C 1.953125 -0.300781 1.914062 -0.175781 1.84375 -0.09375 C 1.769531 -0.0195312 1.644531 0.015625 1.46875 0.015625 Z M 0.6875 0.015625 "/></g></g></g><g fill="#9d6cff" fill-opacity="1"><g transform="translate(18.401728, 25.594546)"><g><path d="M 1.765625 -2.015625 C 1.804688 -2.015625 1.828125 -2 1.828125 -1.96875 L 1.828125 -1.671875 C 1.828125 -1.640625 1.804688 -1.625 1.765625 -1.625 L 1.140625 -1.625 L 1.140625 -0.0625 C 1.140625 -0.0195312 1.117188 0 1.078125 0 L 0.75 0 C 0.707031 0 0.6875 -0.0195312 0.6875 -0.0625 L 0.6875 -1.625 L 0.078125 -1.625 C 0.0351562 -1.625 0.015625 -1.640625 0.015625 -1.671875 L 0.015625 -1.96875 C 0.015625 -2 0.0351562 -2.015625 0.078125 -2.015625 Z M 1.765625 -2.015625 "/></g></g></g><g fill="#9d6cff" fill-opacity="1"><g transform="translate(20.449315, 25.594546)"><g><path d="M 2 -0.078125 C 2.007812 -0.0664062 2.015625 -0.0546875 2.015625 -0.046875 C 2.015625 -0.015625 1.992188 0 1.953125 0 L 1.640625 0 C 1.617188 0 1.601562 0 1.59375 0 C 1.582031 -0.0078125 1.570312 -0.0234375 1.5625 -0.046875 L 1.421875 -0.40625 L 0.5625 -0.40625 L 0.421875 -0.046875 C 0.410156 -0.0234375 0.398438 -0.0078125 0.390625 0 C 0.378906 0 0.363281 0 0.34375 0 L 0.03125 0 C -0.0078125 0 -0.03125 -0.015625 -0.03125 -0.046875 C -0.03125 -0.0546875 -0.0234375 -0.0664062 -0.015625 -0.078125 L 0.734375 -1.96875 C 0.742188 -2 0.769531 -2.015625 0.8125 -2.015625 L 1.171875 -2.015625 C 1.191406 -2.015625 1.207031 -2.007812 1.21875 -2 C 1.226562 -2 1.238281 -1.988281 1.25 -1.96875 Z M 0.984375 -1.53125 L 0.6875 -0.796875 L 1.296875 -0.796875 L 1 -1.53125 Z M 0.984375 -1.53125 "/></g></g></g><g fill="#9d6cff" fill-opacity="1"><g transform="translate(22.641297, 25.594546)"><g><path d="M 1.765625 -2.015625 C 1.804688 -2.015625 1.828125 -2 1.828125 -1.96875 L 1.828125 -1.671875 C 1.828125 -1.640625 1.804688 -1.625 1.765625 -1.625 L 1.140625 -1.625 L 1.140625 -0.0625 C 1.140625 -0.0195312 1.117188 0 1.078125 0 L 0.75 0 C 0.707031 0 0.6875 -0.0195312 0.6875 -0.0625 L 0.6875 -1.625 L 0.078125 -1.625 C 0.0351562 -1.625 0.015625 -1.640625 0.015625 -1.671875 L 0.015625 -1.96875 C 0.015625 -2 0.0351562 -2.015625 0.078125 -2.015625 Z M 1.765625 -2.015625 "/></g></g></g><g fill="#9d6cff" fill-opacity="1"><g transform="translate(24.688884, 25.594546)"><g><path d="M 0.6875 0.015625 C 0.519531 0.015625 0.394531 -0.0195312 0.3125 -0.09375 C 0.238281 -0.175781 0.203125 -0.300781 0.203125 -0.46875 L 0.203125 -0.59375 C 0.203125 -0.625 0.222656 -0.640625 0.265625 -0.640625 L 0.59375 -0.640625 C 0.632812 -0.640625 0.65625 -0.625 0.65625 -0.59375 L 0.65625 -0.5 C 0.65625 -0.4375 0.664062 -0.390625 0.6875 -0.359375 C 0.71875 -0.335938 0.765625 -0.328125 0.828125 -0.328125 L 1.34375 -0.328125 C 1.40625 -0.328125 1.445312 -0.335938 1.46875 -0.359375 C 1.5 -0.390625 1.515625 -0.4375 1.515625 -0.5 L 1.515625 -0.671875 C 1.515625 -0.734375 1.5 -0.773438 1.46875 -0.796875 C 1.445312 -0.828125 1.40625 -0.84375 1.34375 -0.84375 L 0.71875 -0.84375 C 0.550781 -0.84375 0.425781 -0.878906 0.34375 -0.953125 C 0.269531 -1.023438 0.234375 -1.148438 0.234375 -1.328125 L 0.234375 -1.5625 C 0.234375 -1.726562 0.269531 -1.847656 0.34375 -1.921875 C 0.425781 -1.992188 0.550781 -2.03125 0.71875 -2.03125 L 1.390625 -2.03125 C 1.566406 -2.03125 1.691406 -1.992188 1.765625 -1.921875 C 1.835938 -1.847656 1.875 -1.726562 1.875 -1.5625 L 1.875 -1.4375 C 1.875 -1.394531 1.859375 -1.375 1.828125 -1.375 L 1.484375 -1.375 C 1.441406 -1.375 1.421875 -1.394531 1.421875 -1.4375 L 1.421875 -1.515625 C 1.421875 -1.578125 1.40625 -1.617188 1.375 -1.640625 C 1.351562 -1.671875 1.3125 -1.6875 1.25 -1.6875 L 0.859375 -1.6875 C 0.796875 -1.6875 0.75 -1.671875 0.71875 -1.640625 C 0.695312 -1.617188 0.6875 -1.578125 0.6875 -1.515625 L 0.6875 -1.359375 C 0.6875 -1.296875 0.695312 -1.25 0.71875 -1.21875 C 0.75 -1.195312 0.796875 -1.1875 0.859375 -1.1875 L 1.46875 -1.1875 C 1.644531 -1.1875 1.769531 -1.144531 1.84375 -1.0625 C 1.914062 -0.988281 1.953125 -0.867188 1.953125 -0.703125 L 1.953125 -0.46875 C 1.953125 -0.300781 1.914062 -0.175781 1.84375 -0.09375 C 1.769531 -0.0195312 1.644531 0.015625 1.46875 0.015625 Z M 0.6875 0.015625 "/></g></g></g></svg>